# xmcd
#
# Track frame offsets:
#   150
#   13913
#   29553
#   47585
#   64208
#   84297
#   97292
#   117869
#   131444
#   147491
#   167051
#   187687
#   199995
#   213975
#   225304
#   241983
#   257489
#   273088
#   286936
#   306457
#   317818
#   332867
#   344722
#
# Disc length: 4760 seconds
#
# Revision: 0
# Processed by: cddbd v1.5PL3 Copyright (c) Steve Scherf et al.
# Submitted via: Media_Universe 3.0
#
DISCID=58129617
DTITLE=Gary Allen - See If I Care and Mixed
DYEAR=1900
DGENRE=Country
TTITLE0=Drinkin' Dark Whiskey
TTITLE1=Can't Do It Today
TTITLE2=Tough Little Boys
TTITLE3=See If I Care
TTITLE4=Songs About Rain
TTITLE5=I Can Love You
TTITLE6=Don't Look Away
TTITLE7=Guys Like Me
TTITLE8=Nothing On But The Radio
TTITLE9=You Don't Know A Thing About Me
TTITLE10=A Showmans Life ****
TTITLE11=Quarter In My Pocket
TTITLE12=Red Lips, Blue Eyes, Little White Lies
TTITLE13=Devil's Candy
TTITLE14=Man To Man
TTITLE15=Man Of Me
TTITLE16=Highway Junkie
TTITLE17=Right Where I Need To Be
TTITLE18=Cryin' For Nothin'
TTITLE19=Used Heart For Sale
TTITLE20=Forever And A Day
TTITLE21=Her Man
TTITLE22=
EXTD=
EXTT0=
EXTT1=
EXTT2=
EXTT3=
EXTT4=
EXTT5=
EXTT6=
EXTT7=
EXTT8=
EXTT9=
EXTT10=
EXTT11=
EXTT12=
EXTT13=
EXTT14=
EXTT15=
EXTT16=
EXTT17=
EXTT18=
EXTT19=
EXTT20=
EXTT21=
EXTT22=
PLAYORDER=
